<!-- FILE: public/google-icon.svg -->
<svg xmlns="http://www.w3.org/2000/svg" viewBox="0 0 533.5 544.3">
  <path fill="#4285F4" d="M533.5 278.4c0-18.5-1.7-36.4-5-53.6H272v101.5h147c-6.3 34-25.1 62.8-53.5 82v68h86.5c50.7-46.7 81.5-115.4 81.5-198z"/>
  <path fill="#34A853" d="M272 544.3c72.5 0 133.4-23.9 177.8-64.8l-86.5-68c-24 16-54.7 25.6-91.3 25.6-70 0-129.4-47.2-150.7-110.7H32v69.4C75.9 485.1 168.1 544.3 272 544.3z"/>
  <path fill="#FBBC05" d="M121.3 326.4c-10.4-30.9-10.4-64.6 0-95.5V161.5H32c-41.7 82.9-41.7 180 0 262.9l89.3-68z"/>
  <path fill="#EA4335" d="M272 107.7c39.5-.6 77.1 13.8 105.8 40.5l79.2-79.2C403.7 24.1 340.7 0 272 0 168.1 0 75.9 59.2 32 161.5l89.3 69.4C142.6 154.4 202 107.7 272 107.7z"/>
</svg>
